<svg width="309" height="58" viewBox="0 0 309 58" fill="none" xmlns="http://www.w3.org/2000/svg">
<path d="M46.6026 26.4794C55.1064 26.4794 62 19.7806 62 11.5171L45.3709 11.5171C36.8671 11.5171 29.9735 18.216 29.9735 26.4794L46.6026 26.4794Z" fill="#2A00FE"/>
<path d="M32.0265 26.8784C40.5302 26.8784 47.4238 33.5773 47.4238 41.8407V50.5188C47.4238 54.6506 43.977 58 39.7252 58C35.4733 58 32.0265 54.6506 32.0265 50.5189V26.8784Z" fill="#2A00FE"/>
<path d="M29.9735 26.8784C21.4698 26.8784 14.5762 33.5773 14.5762 41.8407V50.5188C14.5762 54.6506 18.023 58 22.2748 58C26.5267 58 29.9735 54.6506 29.9735 50.5189V26.8784Z" fill="#2A00FE"/>
<path d="M16.6291 11.5171C25.1328 11.5171 32.0265 18.216 32.0265 26.4794H15.3974C6.89364 26.4794 -3.7171e-07 19.7806 0 11.5171L16.6291 11.5171Z" fill="#2A00FE"/>
<path d="M36.9615 6.08275C36.9615 9.44216 34.159 12.1655 30.7019 12.1655C27.2448 12.1655 24.4423 9.44216 24.4423 6.08275C24.4423 2.72334 27.2448 0 30.7019 0C34.159 0 36.9615 2.72334 36.9615 6.08275Z" fill="#2A00FE"/>
<path d="M293.276 36.7031L293.216 31.8555H293.931L303.937 20.5H308.285L297.624 32.5195H297.326L293.276 36.7031ZM290 46V12H293.514V46H290ZM304.533 46L295.599 33.3828L298.1 30.6602L309 46H304.533Z" fill="black"/>
<path d="M275.778 46C273.342 46 271.243 45.4433 269.483 44.33C267.723 43.2166 266.369 41.683 265.422 39.7292C264.474 37.7754 264 35.5432 264 33.0327C264 30.4786 264.485 28.2246 265.455 26.2708C266.437 24.306 267.802 22.7725 269.551 21.67C271.311 20.5567 273.364 20 275.711 20C277.538 20 279.186 20.3275 280.652 20.9824C282.119 21.6373 283.321 22.5542 284.257 23.733C285.193 24.9118 285.774 26.2872 286 27.8589H282.006C281.702 26.7128 281.025 25.6977 279.975 24.8136C278.937 23.9186 277.538 23.471 275.778 23.471C274.222 23.471 272.856 23.864 271.683 24.6499C270.521 25.4249 269.613 26.5218 268.958 27.9408C268.315 29.3489 267.994 31.0025 267.994 32.9018C267.994 34.8447 268.31 36.5365 268.942 37.9773C269.585 39.4181 270.487 40.5369 271.649 41.3338C272.823 42.1306 274.199 42.529 275.778 42.529C276.816 42.529 277.758 42.3543 278.605 42.005C279.451 41.6558 280.167 41.1537 280.754 40.4987C281.341 39.8438 281.758 39.0579 282.006 38.1411H286C285.774 39.6255 285.216 40.9626 284.325 42.1524C283.445 43.3312 282.277 44.2699 280.822 44.9685C279.377 45.6562 277.696 46 275.778 46Z" fill="black"/>
<path d="M249.107 46C247.602 46 246.235 45.7006 245.007 45.1018C243.78 44.492 242.805 43.6156 242.083 42.4724C241.361 41.3183 241 39.9246 241 38.2915C241 36.8543 241.268 35.6893 241.805 34.7965C242.341 33.8928 243.058 33.1851 243.955 32.6734C244.853 32.1616 245.843 31.7806 246.926 31.5302C248.019 31.2688 249.118 31.062 250.221 30.9095C251.666 30.7136 252.836 30.5666 253.734 30.4686C254.641 30.3597 255.302 30.1801 255.714 29.9296C256.137 29.6792 256.349 29.2437 256.349 28.6231V28.4925C256.349 26.8811 255.931 25.629 255.095 24.7362C254.27 23.8434 253.017 23.397 251.336 23.397C249.592 23.397 248.226 23.7998 247.235 24.6055C246.245 25.4112 245.549 26.2714 245.147 27.1859L241.681 25.8794C242.3 24.3551 243.125 23.1683 244.156 22.3191C245.198 21.459 246.333 20.8601 247.56 20.5226C248.798 20.1742 250.015 20 251.212 20C251.975 20 252.852 20.098 253.842 20.294C254.843 20.4791 255.807 20.8656 256.735 21.4535C257.674 22.0415 258.453 22.9288 259.072 24.1156C259.691 25.3023 260 26.892 260 28.8844V45.4121H256.349V42.0151H256.163C255.915 42.5595 255.503 43.142 254.925 43.7626C254.347 44.3832 253.579 44.9112 252.62 45.3467C251.66 45.7822 250.49 46 249.107 46ZM249.664 42.5377C251.109 42.5377 252.326 42.2383 253.316 41.6394C254.317 41.0406 255.069 40.2676 255.575 39.3204C256.091 38.3731 256.349 37.3769 256.349 36.3317V32.804C256.194 33 255.853 33.1796 255.327 33.343C254.812 33.4954 254.213 33.6315 253.533 33.7513C252.862 33.8601 252.207 33.9581 251.568 34.0452C250.938 34.1214 250.428 34.1868 250.036 34.2412C249.087 34.3719 248.2 34.5842 247.375 34.8781C246.56 35.1612 245.9 35.5913 245.394 36.1683C244.899 36.7345 244.651 37.5075 244.651 38.4874C244.651 39.8266 245.121 40.8392 246.059 41.5251C247.008 42.2002 248.21 42.5377 249.664 42.5377Z" fill="black"/>
<path d="M226 46V20.4H229.266V24.2667H229.495C229.896 23 230.622 21.9722 231.672 21.1833C232.722 20.3944 233.906 20 235.224 20C235.472 20 235.783 20.0056 236.155 20.0167C236.527 20.0278 236.809 20.0444 237 20.0667V24.0667C236.885 24.0333 236.623 23.9833 236.212 23.9167C235.811 23.8389 235.386 23.8 234.937 23.8C233.868 23.8 232.913 24.0611 232.073 24.5833C231.242 25.0944 230.583 25.8056 230.096 26.7167C229.619 27.6167 229.38 28.6444 229.38 29.8V46H226Z" fill="black"/>
<path d="M200 15.6523V12H222V15.6523H212.776V46H209.224V15.6523H200Z" fill="black"/>
<path d="M195.559 21.733V26.7183H181V21.733H195.559ZM184.305 16H191.01V38.309C191.01 38.9218 191.105 39.3995 191.294 39.7423C191.483 40.0746 191.745 40.3083 192.081 40.4433C192.427 40.5783 192.826 40.6458 193.277 40.6458C193.592 40.6458 193.907 40.6199 194.221 40.568C194.536 40.5056 194.778 40.4589 194.945 40.4277L196 45.3663C195.664 45.4701 195.192 45.5896 194.583 45.7246C193.975 45.87 193.235 45.9583 192.364 45.9894C190.748 46.0517 189.332 45.8388 188.114 45.3507C186.908 44.8625 185.969 44.1044 185.297 43.0762C184.625 42.048 184.295 40.7497 184.305 39.1814V16Z" fill="black"/>
<path d="M176.417 27.5082L169.922 27.9016C169.811 27.3552 169.572 26.8634 169.206 26.4262C168.839 25.9781 168.356 25.623 167.757 25.3607C167.168 25.0874 166.463 24.9508 165.642 24.9508C164.542 24.9508 163.615 25.1803 162.86 25.6393C162.105 26.0874 161.728 26.6885 161.728 27.4426C161.728 28.0437 161.972 28.5519 162.461 28.9672C162.949 29.3825 163.787 29.7158 164.975 29.9672L169.605 30.8852C172.092 31.388 173.947 32.1967 175.168 33.3115C176.389 34.4262 177 35.8907 177 37.7049C177 39.3552 176.506 40.8033 175.518 42.0492C174.541 43.2951 173.197 44.2678 171.487 44.9672C169.789 45.6557 167.829 46 165.608 46C162.222 46 159.524 45.306 157.514 43.918C155.516 42.5191 154.344 40.6175 154 38.2131L160.978 37.8525C161.189 38.8689 161.7 39.6448 162.51 40.1803C163.321 40.7049 164.359 40.9672 165.625 40.9672C166.868 40.9672 167.868 40.7322 168.623 40.2623C169.389 39.7814 169.777 39.1639 169.789 38.4098C169.777 37.776 169.505 37.2568 168.972 36.8525C168.44 36.4372 167.618 36.1202 166.508 35.9016L162.077 35.0328C159.579 34.541 157.72 33.6885 156.498 32.4754C155.288 31.2623 154.683 29.7158 154.683 27.8361C154.683 26.2186 155.127 24.8251 156.015 23.6557C156.915 22.4863 158.175 21.5847 159.796 20.9508C161.428 20.3169 163.338 20 165.525 20C168.756 20 171.299 20.6721 173.153 22.0164C175.018 23.3607 176.106 25.1913 176.417 27.5082Z" fill="black"/>
<path d="M143.358 34.7378V20H150V45.6658H143.623V41.0039H143.373C142.833 42.5077 141.934 43.7164 140.676 44.6298C139.429 45.5433 137.906 46 136.108 46C134.507 46 133.099 45.6101 131.882 44.8303C130.666 44.0506 129.715 42.9422 129.029 41.5051C128.353 40.0681 128.01 38.347 128 36.3419V20H134.642V35.072C134.652 36.587 135.032 37.7845 135.78 38.6645C136.529 39.5446 137.532 39.9846 138.79 39.9846C139.59 39.9846 140.338 39.7896 141.035 39.3997C141.731 38.9987 142.292 38.4083 142.719 37.6285C143.155 36.8488 143.368 35.8852 143.358 34.7378Z" fill="black"/>
<path d="M109 46V20.3671H115.647V24.8395H115.905C116.355 23.2486 117.112 22.0471 118.174 21.2349C119.236 20.4116 120.459 20 121.843 20C122.187 20 122.557 20.0223 122.954 20.0668C123.351 20.1113 123.7 20.1724 124 20.2503V26.5584C123.678 26.4583 123.233 26.3693 122.664 26.2914C122.095 26.2135 121.575 26.1746 121.103 26.1746C120.094 26.1746 119.193 26.4027 118.399 26.8588C117.616 27.3038 116.994 27.9268 116.532 28.7279C116.082 29.5289 115.856 30.4523 115.856 31.4981V46H109Z" fill="black"/>
<path d="M75 17.9268V12H105V17.9268H93.8169V46H86.1831V17.9268H75Z" fill="black"/>
</svg>
