<svg width="336" height="70" viewBox="0 0 336 70" fill="none" xmlns="http://www.w3.org/2000/svg">
<path d="M67.649 22.5322C79.9931 22.5322 90 12.4442 90 0L65.8609 1.06371e-06C53.5168 1.60766e-06 43.5099 10.088 43.5099 22.5322L67.649 22.5322Z" fill="url(#paint0_linear_29_3)"/>
<path d="M46.4901 23.133C58.8342 23.133 68.8411 33.2211 68.8411 45.6652V58.7339C68.8411 64.956 63.8376 70 57.6656 70C51.4935 70 46.4901 64.956 46.4901 58.7339V23.133Z" fill="url(#paint1_linear_29_3)"/>
<path d="M43.5099 23.133C31.1658 23.133 21.1589 33.2211 21.1589 45.6652V58.7339C21.1589 64.956 26.1624 70 32.3344 70C38.5065 70 43.5099 64.956 43.5099 58.7339V23.133Z" fill="url(#paint2_linear_29_3)"/>
<path d="M24.1391 1.30718e-06C36.4832 1.85113e-06 46.4901 10.088 46.4901 22.5322H22.351C10.0069 22.5322 -5.39578e-07 12.4442 0 2.43473e-07L24.1391 1.30718e-06Z" fill="url(#paint3_linear_29_3)"/>
<path d="M267.893 53.2885V54.1053H264.857V53.2885H267.893ZM265.742 51.7857H266.642V57.7643C266.642 58.0366 266.679 58.2408 266.753 58.3769C266.829 58.5103 266.926 58.6001 267.043 58.6464C267.162 58.69 267.288 58.7118 267.42 58.7118C267.519 58.7118 267.601 58.7063 267.664 58.6954C267.728 58.6818 267.779 58.6709 267.817 58.6628L268 59.5285C267.939 59.553 267.854 59.5775 267.744 59.602C267.635 59.6292 267.497 59.6429 267.329 59.6429C267.074 59.6429 266.825 59.5843 266.581 59.4673C266.34 59.3502 266.139 59.1719 265.979 58.9323C265.821 58.6927 265.742 58.3905 265.742 58.0257V51.7857Z" fill="black"/>
<path d="M261.516 59.6429C260.907 59.6429 260.382 59.5083 259.942 59.2391C259.502 58.97 259.164 58.5992 258.927 58.1268C258.69 57.6545 258.571 57.1148 258.571 56.5079C258.571 55.8904 258.693 55.3455 258.935 54.8732C259.181 54.3982 259.522 54.0274 259.959 53.7609C260.399 53.4917 260.912 53.3571 261.499 53.3571C261.956 53.3571 262.368 53.4363 262.735 53.5946C263.101 53.753 263.402 53.9746 263.636 54.2596C263.87 54.5446 264.015 54.8771 264.071 55.2571H263.073C262.997 54.98 262.828 54.7346 262.565 54.5209C262.306 54.3045 261.956 54.1963 261.516 54.1963C261.127 54.1963 260.786 54.2913 260.492 54.4813C260.202 54.6686 259.975 54.9338 259.811 55.2769C259.65 55.6173 259.57 56.0171 259.57 56.4763C259.57 56.946 259.649 57.355 259.807 57.7033C259.968 58.0516 260.193 58.3221 260.484 58.5148C260.777 58.7074 261.121 58.8037 261.516 58.8037C261.776 58.8037 262.011 58.7615 262.223 58.677C262.434 58.5926 262.613 58.4712 262.76 58.3129C262.907 58.1546 263.011 57.9646 263.073 57.7429H264.071C264.015 58.1018 263.875 58.425 263.653 58.7127C263.433 58.9977 263.141 59.2246 262.777 59.3935C262.416 59.5597 261.996 59.6429 261.516 59.6429Z" fill="black"/>
<path d="M254.633 59.6429C254.197 59.6429 253.801 59.5705 253.446 59.4257C253.09 59.2783 252.808 59.0664 252.599 58.79C252.39 58.511 252.286 58.1741 252.286 57.7793C252.286 57.4318 252.363 57.1502 252.519 56.9343C252.674 56.7158 252.881 56.5447 253.141 56.421C253.401 56.2973 253.688 56.2052 254.001 56.1447C254.318 56.0815 254.636 56.0315 254.955 55.9946C255.373 55.9472 255.712 55.9117 255.972 55.888C256.235 55.8617 256.426 55.8183 256.545 55.7577C256.668 55.6972 256.729 55.5919 256.729 55.4419V55.4103C256.729 55.0207 256.608 54.718 256.366 54.5022C256.127 54.2863 255.764 54.1784 255.278 54.1784C254.773 54.1784 254.377 54.2758 254.091 54.4706C253.804 54.6654 253.602 54.8733 253.486 55.0944L252.483 54.7785C252.662 54.41 252.901 54.1231 253.199 53.9178C253.501 53.7099 253.829 53.5651 254.185 53.4835C254.543 53.3993 254.895 53.3571 255.242 53.3571C255.463 53.3571 255.716 53.3808 256.003 53.4282C256.293 53.473 256.572 53.5664 256.841 53.7085C257.112 53.8507 257.338 54.0652 257.517 54.3521C257.696 54.639 257.786 55.0233 257.786 55.505V59.5007H256.729V58.6795H256.675C256.603 58.8111 256.484 58.9519 256.317 59.1019C256.149 59.252 255.927 59.3796 255.649 59.4849C255.372 59.5902 255.033 59.6429 254.633 59.6429ZM254.794 58.8058C255.212 58.8058 255.564 58.7334 255.851 58.5887C256.14 58.4439 256.358 58.257 256.505 58.028C256.654 57.799 256.729 57.5581 256.729 57.3055V56.4526C256.684 56.5 256.585 56.5434 256.433 56.5829C256.284 56.6198 256.111 56.6527 255.914 56.6816C255.719 56.7079 255.53 56.7316 255.345 56.7527C255.163 56.7711 255.015 56.7869 254.901 56.8001C254.627 56.8317 254.37 56.883 254.131 56.9541C253.895 57.0225 253.704 57.1265 253.558 57.266C253.414 57.4028 253.343 57.5897 253.343 57.8266C253.343 58.1504 253.479 58.3952 253.75 58.561C254.025 58.7242 254.373 58.8058 254.794 58.8058Z" fill="black"/>
<path d="M246 62V53.4382H246.925V54.4274H247.038C247.109 54.3193 247.206 54.1814 247.33 54.0139C247.457 53.8436 247.639 53.6923 247.874 53.5598C248.112 53.4247 248.434 53.3571 248.839 53.3571C249.364 53.3571 249.826 53.4882 250.226 53.7504C250.627 54.0125 250.939 54.3841 251.163 54.8652C251.388 55.3462 251.5 55.9138 251.5 56.5678C251.5 57.2272 251.388 57.7988 251.163 58.2826C250.939 58.7637 250.628 59.1366 250.23 59.4015C249.833 59.6636 249.375 59.7947 248.855 59.7947C248.455 59.7947 248.135 59.7285 247.894 59.5961C247.654 59.4609 247.468 59.3082 247.339 59.138C247.209 58.965 247.109 58.8218 247.038 58.7083H246.957V62H246ZM246.941 56.5516C246.941 57.0218 247.01 57.4367 247.148 57.7961C247.286 58.1529 247.487 58.4326 247.752 58.6353C248.017 58.8353 248.342 58.9353 248.726 58.9353C249.126 58.9353 249.46 58.8299 249.728 58.6191C249.998 58.4056 250.201 58.1191 250.336 57.7596C250.474 57.3975 250.543 56.9948 250.543 56.5516C250.543 56.1138 250.475 55.7192 250.34 55.3679C250.207 55.0138 250.006 54.7341 249.736 54.5287C249.468 54.3206 249.131 54.2166 248.726 54.2166C248.336 54.2166 248.009 54.3152 247.744 54.5125C247.479 54.7071 247.279 54.98 247.144 55.3314C247.009 55.68 246.941 56.0868 246.941 56.5516Z" fill="black"/>
<path d="M236.571 59.6429V53.4379H237.549V54.4075H237.635C237.772 54.0762 237.993 53.819 238.299 53.6359C238.605 53.4501 238.972 53.3571 239.401 53.3571C239.835 53.3571 240.197 53.4501 240.486 53.6359C240.777 53.819 241.004 54.0762 241.167 54.4075H241.236C241.404 54.087 241.657 53.8325 241.995 53.644C242.332 53.4527 242.736 53.3571 243.208 53.3571C243.797 53.3571 244.278 53.5308 244.653 53.8783C245.027 54.223 245.214 54.7603 245.214 55.4901V59.6429H244.203V55.4901C244.203 55.0323 244.07 54.705 243.804 54.5084C243.538 54.3118 243.225 54.2136 242.865 54.2136C242.402 54.2136 242.043 54.3455 241.789 54.6094C241.535 54.8707 241.407 55.2019 241.407 55.6032V59.6429H240.378V55.3931C240.378 55.0403 240.257 54.7562 240.014 54.5408C239.771 54.3226 239.458 54.2136 239.075 54.2136C238.812 54.2136 238.566 54.2795 238.338 54.4115C238.112 54.5435 237.929 54.7266 237.789 54.9609C237.652 55.1925 237.583 55.4605 237.583 55.7648V59.6429H236.571Z" fill="black"/>
<path d="M235.786 51V59.6429H235V51H235.786Z" fill="black"/>
<path d="M229.573 59.6429C229.054 59.6429 228.596 59.5085 228.198 59.2398C227.801 58.9683 227.49 58.586 227.265 58.093C227.041 57.5971 226.929 57.0112 226.929 56.3353C226.929 55.6649 227.041 55.0832 227.265 54.5901C227.49 54.097 227.802 53.7161 228.202 53.4474C228.602 53.1787 229.065 53.0444 229.589 53.0444C229.995 53.0444 230.315 53.1136 230.551 53.2521C230.789 53.3879 230.97 53.543 231.094 53.7175C231.221 53.8893 231.32 54.0305 231.39 54.1413H231.471V51H232.429V59.5099H231.504V58.5293H231.39C231.32 58.6456 231.22 58.7924 231.09 58.9697C230.96 59.1442 230.775 59.3007 230.534 59.4393C230.294 59.575 229.973 59.6429 229.573 59.6429ZM229.703 58.762C230.087 58.762 230.411 58.6595 230.676 58.4545C230.941 58.2467 231.143 57.96 231.281 57.5943C231.419 57.2259 231.488 56.8007 231.488 56.3187C231.488 55.8422 231.42 55.4253 231.285 55.068C231.15 54.7078 230.949 54.4281 230.684 54.2286C230.419 54.0264 230.092 53.9253 229.703 53.9253C229.297 53.9253 228.959 54.0319 228.689 54.2452C228.421 54.4558 228.22 54.7425 228.085 55.1054C227.952 55.4655 227.886 55.8699 227.886 56.3187C227.886 56.773 227.953 57.1857 228.089 57.5569C228.227 57.9254 228.429 58.219 228.697 58.4378C228.967 58.6539 229.303 58.762 229.703 58.762Z" fill="black"/>
<path d="M223.556 59.6429C222.954 59.6429 222.434 59.5136 221.998 59.2549C221.564 58.9937 221.229 58.6295 220.993 58.1625C220.759 57.6928 220.643 57.1465 220.643 56.5237C220.643 55.901 220.759 55.3521 220.993 54.8771C221.229 54.3995 221.557 54.0274 221.977 53.7609C222.4 53.4917 222.894 53.3571 223.458 53.3571C223.783 53.3571 224.105 53.4099 224.422 53.5155C224.739 53.621 225.028 53.7926 225.289 54.03C225.549 54.2649 225.756 54.5763 225.911 54.9642C226.066 55.3521 226.143 55.8297 226.143 56.3971V56.7929H221.326V55.9854H225.167C225.167 55.6424 225.096 55.3363 224.955 55.0671C224.817 54.7979 224.619 54.5855 224.361 54.4298C224.106 54.2741 223.805 54.1963 223.458 54.1963C223.076 54.1963 222.745 54.2887 222.465 54.4734C222.189 54.6555 221.976 54.8929 221.827 55.1859C221.678 55.4788 221.603 55.7928 221.603 56.1279V56.6662C221.603 57.1254 221.684 57.5146 221.847 57.8339C222.012 58.1506 222.242 58.392 222.534 58.5583C222.827 58.7219 223.168 58.8037 223.556 58.8037C223.808 58.8037 224.036 58.7694 224.239 58.7008C224.445 58.6295 224.623 58.524 224.772 58.3841C224.921 58.2416 225.036 58.0648 225.118 57.8537L226.045 58.1071C225.948 58.4132 225.784 58.6823 225.553 58.9145C225.322 59.1441 225.038 59.3236 224.699 59.4529C224.36 59.5795 223.979 59.6429 223.556 59.6429Z" fill="black"/>
<path d="M218.51 59.6429V53.3571H219.614V59.6429H218.51ZM219.071 52.3095C218.856 52.3095 218.671 52.2454 218.515 52.1172C218.362 51.989 218.286 51.8348 218.286 51.6548C218.286 51.4747 218.362 51.3206 218.515 51.1923C218.671 51.0641 218.856 51 219.071 51C219.287 51 219.471 51.0641 219.623 51.1923C219.779 51.3206 219.857 51.4747 219.857 51.6548C219.857 51.8348 219.779 51.989 219.623 52.1172C219.471 52.2454 219.287 52.3095 219.071 52.3095Z" fill="black"/>
<path d="M217.17 53.451V54.2572H213.571V53.451H217.17ZM214.649 59.6429V52.5963C214.649 52.2416 214.739 51.946 214.919 51.7095C215.098 51.473 215.331 51.2956 215.618 51.1774C215.905 51.0591 216.208 51 216.527 51C216.779 51 216.984 51.0188 217.144 51.0564C217.303 51.0941 217.422 51.129 217.5 51.1612L217.204 51.9836C217.152 51.9675 217.08 51.9473 216.987 51.9231C216.897 51.899 216.779 51.8869 216.631 51.8869C216.292 51.8869 216.047 51.9661 215.896 52.1247C215.749 52.2833 215.675 52.5157 215.675 52.8221V59.6429H214.649Z" fill="black"/>
<path d="M211.439 59.6429V53.3571H212.543V59.6429H211.439ZM212 52.3095C211.785 52.3095 211.599 52.2454 211.443 52.1172C211.291 51.989 211.214 51.8348 211.214 51.6548C211.214 51.4747 211.291 51.3206 211.443 51.1923C211.599 51.0641 211.785 51 212 51C212.215 51 212.399 51.0641 212.552 51.1923C212.708 51.3206 212.786 51.4747 212.786 51.6548C212.786 51.8348 212.708 51.989 212.552 52.1172C212.399 52.2454 212.215 52.3095 212 52.3095Z" fill="black"/>
<path d="M207.286 59.6429V53.4538H208.219V54.3886H208.284C208.399 54.0824 208.606 53.8339 208.906 53.6432C209.206 53.4525 209.545 53.3571 209.921 53.3571C209.992 53.3571 210.081 53.3585 210.187 53.3612C210.294 53.3639 210.374 53.3679 210.429 53.3733V54.3403C210.396 54.3322 210.321 54.3201 210.203 54.304C210.089 54.2852 209.968 54.2758 209.839 54.2758C209.534 54.2758 209.261 54.339 209.021 54.4652C208.783 54.5888 208.595 54.7607 208.456 54.981C208.32 55.1985 208.251 55.447 208.251 55.7264V59.6429H207.286Z" fill="black"/>
<path d="M203.913 59.6429C203.311 59.6429 202.791 59.5136 202.355 59.2549C201.921 58.9937 201.586 58.6295 201.35 58.1625C201.117 57.6928 201 57.1465 201 56.5237C201 55.901 201.117 55.3521 201.35 54.8771C201.586 54.3995 201.914 54.0274 202.334 53.7609C202.757 53.4917 203.251 53.3571 203.815 53.3571C204.141 53.3571 204.462 53.4099 204.779 53.5155C205.097 53.621 205.385 53.7926 205.646 54.03C205.906 54.2649 206.114 54.5763 206.268 54.9642C206.423 55.3521 206.5 55.8297 206.5 56.3971V56.7929H201.683V55.9854H205.524C205.524 55.6424 205.453 55.3363 205.312 55.0671C205.174 54.7979 204.976 54.5855 204.718 54.4298C204.463 54.2741 204.162 54.1963 203.815 54.1963C203.433 54.1963 203.102 54.2887 202.822 54.4734C202.546 54.6555 202.333 54.8929 202.184 55.1859C202.035 55.4788 201.96 55.7928 201.96 56.1279V56.6662C201.96 57.1254 202.041 57.5146 202.204 57.8339C202.37 58.1506 202.599 58.392 202.892 58.5583C203.185 58.7219 203.525 58.8037 203.913 58.8037C204.165 58.8037 204.393 58.7694 204.596 58.7008C204.802 58.6295 204.98 58.524 205.129 58.3841C205.278 58.2416 205.393 58.0648 205.475 57.8537L206.402 58.1071C206.305 58.4132 206.141 58.6823 205.91 58.9145C205.68 59.1441 205.395 59.3236 205.056 59.4529C204.717 59.5795 204.336 59.6429 203.913 59.6429Z" fill="black"/>
<path d="M193.518 51L196.232 58.2755H196.339L199.054 51H200.214L196.857 59.6429H195.714L192.357 51H193.518Z" fill="black"/>
<path d="M191.571 58.8571L191.505 59.2923C191.458 59.5985 191.387 59.9263 191.29 60.2755C191.196 60.6247 191.099 60.9537 190.997 61.2626C190.895 61.5716 190.811 61.8173 190.744 62H190C190.036 61.8281 190.083 61.6011 190.141 61.319C190.198 61.037 190.256 60.7214 190.314 60.3722C190.375 60.0256 190.425 59.6711 190.463 59.3084L190.513 58.8571H191.571Z" fill="black"/>
<path d="M189.103 54.7979L188.259 55.0354C188.206 54.8956 188.127 54.7597 188.024 54.6277C187.923 54.4932 187.785 54.3823 187.61 54.2952C187.434 54.2082 187.21 54.1646 186.937 54.1646C186.562 54.1646 186.251 54.2504 186.001 54.4219C185.754 54.5908 185.631 54.8059 185.631 55.0671C185.631 55.2993 185.716 55.4827 185.886 55.6173C186.055 55.7519 186.321 55.864 186.682 55.9538L187.59 56.1754C188.137 56.3074 188.544 56.5092 188.812 56.781C189.08 57.0502 189.214 57.3972 189.214 57.8221C189.214 58.1704 189.113 58.4818 188.912 58.7562C188.713 59.0306 188.434 59.247 188.076 59.4054C187.717 59.5637 187.3 59.6429 186.825 59.6429C186.201 59.6429 185.685 59.5083 185.276 59.2391C184.868 58.97 184.609 58.5768 184.5 58.0596L185.392 57.8379C185.477 58.1651 185.637 58.4105 185.874 58.5741C186.113 58.7377 186.424 58.8195 186.809 58.8195C187.247 58.8195 187.595 58.7272 187.853 58.5425C188.113 58.3551 188.243 58.1308 188.243 57.8696C188.243 57.6585 188.168 57.4816 188.02 57.3392C187.871 57.194 187.643 57.0858 187.335 57.0146L186.316 56.7771C185.756 56.6451 185.344 56.4406 185.081 56.1635C184.821 55.8838 184.691 55.5342 184.691 55.1146C184.691 54.7716 184.788 54.4681 184.982 54.2042C185.178 53.9403 185.445 53.7332 185.782 53.5828C186.122 53.4323 186.507 53.3571 186.937 53.3571C187.542 53.3571 188.017 53.4891 188.362 53.753C188.71 54.0169 188.957 54.3652 189.103 54.7979Z" fill="black"/>
<path d="M179.915 55.9102V59.6429H179V53.4379H179.884V54.4075H179.961C180.101 54.0924 180.313 53.8392 180.597 53.648C180.882 53.4541 181.249 53.3571 181.698 53.3571C182.102 53.3571 182.454 53.4433 182.757 53.6157C183.059 53.7853 183.294 54.0439 183.462 54.3913C183.63 54.736 183.714 55.1723 183.714 55.7001V59.6429H182.799V55.7648C182.799 55.2773 182.678 54.8976 182.435 54.6256C182.192 54.3509 181.859 54.2136 181.435 54.2136C181.143 54.2136 180.882 54.2795 180.652 54.4115C180.424 54.5435 180.244 54.736 180.113 54.9892C179.981 55.2423 179.915 55.5493 179.915 55.9102Z" fill="black"/>
<path d="M175.071 59.6429C174.445 59.6429 173.896 59.5122 173.423 59.251C172.954 58.9897 172.586 58.6243 172.321 58.1546C172.06 57.6848 171.929 57.136 171.929 56.5079C171.929 55.8746 172.06 55.3218 172.321 54.8494C172.586 54.3771 172.954 54.0103 173.423 53.749C173.896 53.4878 174.445 53.3571 175.071 53.3571C175.698 53.3571 176.245 53.4878 176.715 53.749C177.188 54.0103 177.555 54.3771 177.817 54.8494C178.082 55.3218 178.214 55.8746 178.214 56.5079C178.214 57.136 178.082 57.6848 177.817 58.1546C177.555 58.6243 177.188 58.9897 176.715 59.251C176.245 59.5122 175.698 59.6429 175.071 59.6429ZM175.071 58.8037C175.547 58.8037 175.938 58.6968 176.245 58.4831C176.553 58.2693 176.78 57.9883 176.927 57.64C177.075 57.2917 177.149 56.9143 177.149 56.5079C177.149 56.1015 177.075 55.7229 176.927 55.3719C176.78 55.0209 176.553 54.7373 176.245 54.5209C175.938 54.3045 175.547 54.1963 175.071 54.1963C174.596 54.1963 174.204 54.3045 173.897 54.5209C173.59 54.7373 173.363 55.0209 173.216 55.3719C173.068 55.7229 172.994 56.1015 172.994 56.5079C172.994 56.9143 173.068 57.2917 173.216 57.64C173.363 57.9883 173.59 58.2693 173.897 58.4831C174.204 58.6968 174.596 58.8037 175.071 58.8037Z" fill="black"/>
<path d="M169.796 59.6429V53.3571H170.9V59.6429H169.796ZM170.357 52.3095C170.142 52.3095 169.956 52.2454 169.801 52.1172C169.648 51.989 169.571 51.8348 169.571 51.6548C169.571 51.4747 169.648 51.3206 169.801 51.1923C169.956 51.0641 170.142 51 170.357 51C170.572 51 170.756 51.0641 170.909 51.1923C171.065 51.3206 171.143 51.4747 171.143 51.6548C171.143 51.8348 171.065 51.989 170.909 52.1172C170.756 52.2454 170.572 52.3095 170.357 52.3095Z" fill="black"/>
<path d="M168.679 53.2885V54.1053H165.643V53.2885H168.679ZM166.528 51.7857H167.428V57.7643C167.428 58.0366 167.465 58.2408 167.538 58.3769C167.615 58.5103 167.711 58.6001 167.828 58.6464C167.948 58.69 168.074 58.7118 168.206 58.7118C168.305 58.7118 168.386 58.7063 168.45 58.6954C168.514 58.6818 168.564 58.6709 168.603 58.6628L168.786 59.5285C168.725 59.553 168.639 59.5775 168.53 59.602C168.421 59.6292 168.282 59.6429 168.114 59.6429C167.86 59.6429 167.611 59.5843 167.367 59.4673C167.125 59.3502 166.924 59.1719 166.764 58.9323C166.607 58.6927 166.528 58.3905 166.528 58.0257V51.7857Z" fill="black"/>
<path d="M161.704 59.6429C161.268 59.6429 160.872 59.5705 160.517 59.4257C160.162 59.2783 159.88 59.0664 159.671 58.79C159.462 58.511 159.357 58.1741 159.357 57.7793C159.357 57.4318 159.435 57.1502 159.59 56.9343C159.745 56.7158 159.953 56.5447 160.213 56.421C160.472 56.2973 160.759 56.2052 161.073 56.1447C161.389 56.0815 161.707 56.0315 162.027 55.9946C162.445 55.9472 162.783 55.9117 163.043 55.888C163.306 55.8617 163.497 55.8183 163.616 55.7577C163.739 55.6972 163.8 55.5919 163.8 55.4419V55.4103C163.8 55.0207 163.679 54.718 163.437 54.5022C163.198 54.2863 162.836 54.1784 162.349 54.1784C161.844 54.1784 161.449 54.2758 161.162 54.4706C160.875 54.6654 160.674 54.8733 160.557 55.0944L159.554 54.7785C159.733 54.41 159.972 54.1231 160.271 53.9178C160.572 53.7099 160.901 53.5651 161.256 53.4835C161.614 53.3993 161.967 53.3571 162.313 53.3571C162.534 53.3571 162.788 53.3808 163.075 53.4282C163.364 53.473 163.643 53.5664 163.912 53.7085C164.184 53.8507 164.409 54.0652 164.588 54.3521C164.768 54.639 164.857 55.0233 164.857 55.505V59.5007H163.8V58.6795H163.746C163.675 58.8111 163.555 58.9519 163.388 59.1019C163.221 59.252 162.998 59.3796 162.721 59.4849C162.443 59.5902 162.104 59.6429 161.704 59.6429ZM161.865 58.8058C162.283 58.8058 162.636 58.7334 162.922 58.5887C163.212 58.4439 163.43 58.257 163.576 58.028C163.725 57.799 163.8 57.5581 163.8 57.3055V56.4526C163.755 56.5 163.657 56.5434 163.505 56.5829C163.355 56.6198 163.182 56.6527 162.985 56.6816C162.791 56.7079 162.601 56.7316 162.416 56.7527C162.234 56.7711 162.086 56.7869 161.973 56.8001C161.698 56.8317 161.441 56.883 161.202 56.9541C160.967 57.0225 160.775 57.1265 160.629 57.266C160.486 57.4028 160.414 57.5897 160.414 57.8266C160.414 58.1504 160.55 58.3952 160.822 58.561C161.096 58.7242 161.444 58.8058 161.865 58.8058Z" fill="black"/>
<path d="M154.772 55.9102V59.6429H153.857V53.4379H154.741V54.4075H154.819C154.958 54.0924 155.17 53.8392 155.454 53.648C155.739 53.4541 156.106 53.3571 156.555 53.3571C156.959 53.3571 157.311 53.4433 157.614 53.6157C157.916 53.7853 158.151 54.0439 158.319 54.3913C158.487 54.736 158.571 55.1723 158.571 55.7001V59.6429H157.656V55.7648C157.656 55.2773 157.535 54.8976 157.292 54.6256C157.049 54.3509 156.716 54.2136 156.292 54.2136C156 54.2136 155.739 54.2795 155.509 54.4115C155.281 54.5435 155.102 54.736 154.97 54.9892C154.838 55.2423 154.772 55.5493 154.772 55.9102Z" fill="black"/>
<path d="M150.321 59.6429C149.774 59.6429 149.293 59.5122 148.879 59.251C148.468 58.9897 148.147 58.6243 147.915 58.1546C147.686 57.6848 147.571 57.136 147.571 56.5079C147.571 55.8746 147.686 55.3218 147.915 54.8494C148.147 54.3771 148.468 54.0103 148.879 53.749C149.293 53.4878 149.774 53.3571 150.321 53.3571C150.869 53.3571 151.349 53.4878 151.76 53.749C152.173 54.0103 152.495 54.3771 152.724 54.8494C152.956 55.3218 153.071 55.8746 153.071 56.5079C153.071 57.136 152.956 57.6848 152.724 58.1546C152.495 58.6243 152.173 58.9897 151.76 59.251C151.349 59.5122 150.869 59.6429 150.321 59.6429ZM150.321 58.8037C150.738 58.8037 151.08 58.6968 151.349 58.4831C151.617 58.2693 151.816 57.9883 151.945 57.64C152.074 57.2917 152.139 56.9143 152.139 56.5079C152.139 56.1015 152.074 55.7229 151.945 55.3719C151.816 55.0209 151.617 54.7373 151.349 54.5209C151.08 54.3045 150.738 54.1963 150.321 54.1963C149.905 54.1963 149.563 54.3045 149.294 54.5209C149.025 54.7373 148.827 55.0209 148.697 55.3719C148.568 55.7229 148.504 56.1015 148.504 56.5079C148.504 56.9143 148.568 57.2917 148.697 57.64C148.827 57.9883 149.025 58.2693 149.294 58.4831C149.563 58.6968 149.905 58.8037 150.321 58.8037Z" fill="black"/>
<path d="M142.185 59.6429H139.714V51H142.294C143.071 51 143.735 51.173 144.288 51.5191C144.84 51.8623 145.264 52.3561 145.558 53.0003C145.853 53.6418 146 54.4099 146 55.3045C146 56.2048 145.851 56.9799 145.554 57.6298C145.257 58.2769 144.825 58.7749 144.257 59.1238C143.688 59.4698 142.998 59.6429 142.185 59.6429ZM140.684 58.7144H142.122C142.784 58.7144 143.333 58.5766 143.768 58.3009C144.203 58.0251 144.528 57.6327 144.741 57.1234C144.955 56.6142 145.062 56.0079 145.062 55.3045C145.062 54.6068 144.956 54.0062 144.745 53.5025C144.534 52.9961 144.219 52.6079 143.799 52.3378C143.38 52.0649 142.857 51.9284 142.232 51.9284H140.684V58.7144Z" fill="black"/>
<path d="M134.77 59.6429C134.168 59.6429 133.648 59.5136 133.212 59.2549C132.778 58.9937 132.443 58.6295 132.207 58.1625C131.974 57.6928 131.857 57.1465 131.857 56.5237C131.857 55.901 131.974 55.3521 132.207 54.8771C132.443 54.3995 132.771 54.0274 133.191 53.7609C133.615 53.4917 134.108 53.3571 134.672 53.3571C134.998 53.3571 135.319 53.4099 135.636 53.5155C135.954 53.621 136.243 53.7926 136.503 54.03C136.763 54.2649 136.971 54.5763 137.125 54.9642C137.28 55.3521 137.357 55.8297 137.357 56.3971V56.7929H132.541V55.9854H136.381C136.381 55.6424 136.31 55.3363 136.169 55.0671C136.031 54.7979 135.833 54.5855 135.575 54.4298C135.32 54.2741 135.019 54.1963 134.672 54.1963C134.29 54.1963 133.959 54.2887 133.68 54.4734C133.403 54.6555 133.19 54.8929 133.041 55.1859C132.892 55.4788 132.817 55.7928 132.817 56.1279V56.6662C132.817 57.1254 132.899 57.5146 133.061 57.8339C133.227 58.1506 133.456 58.392 133.749 58.5583C134.042 58.7219 134.382 58.8037 134.77 58.8037C135.022 58.8037 135.25 58.7694 135.453 58.7008C135.659 58.6295 135.837 58.524 135.986 58.3841C136.135 58.2416 136.251 58.0648 136.332 57.8537L137.26 58.1071C137.162 58.4132 136.998 58.6823 136.767 58.9145C136.537 59.1441 136.252 59.3236 135.913 59.4529C135.574 59.5795 135.193 59.6429 134.77 59.6429Z" fill="black"/>
<path d="M127.929 59.6429V53.4538H128.862V54.3886H128.927C129.042 54.0824 129.249 53.8339 129.549 53.6432C129.849 53.4525 130.188 53.3571 130.564 53.3571C130.635 53.3571 130.724 53.3585 130.83 53.3612C130.936 53.3639 131.017 53.3679 131.071 53.3733V54.3403C131.039 54.3322 130.964 54.3201 130.846 54.304C130.732 54.2852 130.61 54.2758 130.482 54.2758C130.177 54.2758 129.904 54.339 129.664 54.4652C129.426 54.5888 129.238 54.7607 129.099 54.981C128.963 55.1985 128.894 55.447 128.894 55.7264V59.6429H127.929Z" fill="black"/>
<path d="M126.219 57.0252V53.3571H127.143V59.5621H126.219V58.5118H126.156C126.015 58.8268 125.796 59.0948 125.498 59.3156C125.201 59.5338 124.825 59.6429 124.371 59.6429C123.995 59.6429 123.661 59.558 123.368 59.3884C123.076 59.216 122.846 58.9575 122.679 58.6127C122.512 58.2653 122.429 57.8277 122.429 57.2999V53.3571H123.353V57.2352C123.353 57.6877 123.475 58.0485 123.721 58.3178C123.969 58.5872 124.285 58.7218 124.668 58.7218C124.898 58.7218 125.132 58.6612 125.369 58.54C125.609 58.4188 125.81 58.233 125.972 57.9826C126.137 57.7321 126.219 57.413 126.219 57.0252Z" fill="black"/>
<path d="M119.087 59.6429C118.478 59.6429 117.954 59.5083 117.514 59.2391C117.074 58.97 116.735 58.5992 116.498 58.1268C116.261 57.6545 116.143 57.1148 116.143 56.5079C116.143 55.8904 116.264 55.3455 116.507 54.8732C116.752 54.3982 117.093 54.0274 117.531 53.7609C117.971 53.4917 118.484 53.3571 119.071 53.3571C119.527 53.3571 119.939 53.4363 120.306 53.5946C120.673 53.753 120.973 53.9746 121.207 54.2596C121.441 54.5446 121.586 54.8771 121.643 55.2571H120.644C120.568 54.98 120.399 54.7346 120.137 54.5209C119.877 54.3045 119.527 54.1963 119.087 54.1963C118.698 54.1963 118.357 54.2913 118.064 54.4813C117.773 54.6686 117.546 54.9338 117.382 55.2769C117.222 55.6173 117.141 56.0171 117.141 56.4763C117.141 56.946 117.22 57.355 117.378 57.7033C117.539 58.0516 117.765 58.3221 118.055 58.5148C118.348 58.7074 118.693 58.8037 119.087 58.8037C119.347 58.8037 119.582 58.7615 119.794 58.677C120.006 58.5926 120.185 58.4712 120.331 58.3129C120.478 58.1546 120.582 57.9646 120.644 57.7429H121.643C121.586 58.1018 121.447 58.425 121.224 58.7127C121.004 58.9977 120.712 59.2246 120.348 59.3935C119.987 59.5597 119.567 59.6429 119.087 59.6429Z" fill="black"/>
<path d="M111.984 59.6429C111.382 59.6429 110.863 59.5136 110.426 59.2549C109.992 58.9937 109.657 58.6295 109.421 58.1625C109.188 57.6928 109.071 57.1465 109.071 56.5237C109.071 55.901 109.188 55.3521 109.421 54.8771C109.657 54.3995 109.985 54.0274 110.406 53.7609C110.829 53.4917 111.322 53.3571 111.887 53.3571C112.212 53.3571 112.533 53.4099 112.851 53.5155C113.168 53.621 113.457 53.7926 113.717 54.03C113.977 54.2649 114.185 54.5763 114.34 54.9642C114.494 55.3521 114.571 55.8297 114.571 56.3971V56.7929H109.755V55.9854H113.595C113.595 55.6424 113.525 55.3363 113.384 55.0671C113.245 54.7979 113.047 54.5855 112.79 54.4298C112.535 54.2741 112.234 54.1963 111.887 54.1963C111.504 54.1963 111.173 54.2887 110.894 54.4734C110.617 54.6555 110.404 54.8929 110.255 55.1859C110.106 55.4788 110.031 55.7928 110.031 56.1279V56.6662C110.031 57.1254 110.113 57.5146 110.276 57.8339C110.441 58.1506 110.67 58.392 110.963 58.5583C111.256 58.7219 111.596 58.8037 111.984 58.8037C112.236 58.8037 112.464 58.7694 112.668 58.7008C112.874 58.6295 113.051 58.524 113.2 58.3841C113.35 58.2416 113.465 58.0648 113.546 57.8537L114.474 58.1071C114.376 58.4132 114.212 58.6823 113.982 58.9145C113.751 59.1441 113.466 59.3236 113.127 59.4529C112.788 59.5795 112.407 59.6429 111.984 59.6429Z" fill="black"/>
<path d="M107.144 53.2098C107.093 52.7951 106.886 52.4732 106.523 52.244C106.159 52.0149 105.714 51.9003 105.185 51.9003C104.799 51.9003 104.461 51.9603 104.172 52.0804C103.885 52.2004 103.661 52.3655 103.499 52.5755C103.34 52.7856 103.261 53.0243 103.261 53.2917C103.261 53.5154 103.316 53.7077 103.427 53.8687C103.54 54.0269 103.685 54.1592 103.861 54.2656C104.037 54.3693 104.222 54.4552 104.415 54.5234C104.608 54.5889 104.785 54.6421 104.947 54.683L105.833 54.9122C106.06 54.9695 106.313 55.0486 106.591 55.1496C106.872 55.2505 107.14 55.3883 107.396 55.5629C107.654 55.7347 107.867 55.9557 108.034 56.2258C108.202 56.4959 108.286 56.8274 108.286 57.2202C108.286 57.6731 108.162 58.0823 107.915 58.4479C107.671 58.8135 107.313 59.104 106.842 59.3196C106.374 59.5351 105.804 59.6429 105.134 59.6429C104.51 59.6429 103.969 59.546 103.512 59.3523C103.058 59.1586 102.7 58.8885 102.439 58.542C102.18 58.1956 102.034 57.7932 102 57.3348H103.09C103.119 57.6513 103.229 57.9132 103.422 58.1205C103.618 58.3251 103.865 58.4779 104.163 58.5789C104.464 58.6771 104.788 58.7262 105.134 58.7262C105.537 58.7262 105.899 58.6634 106.22 58.5379C106.541 58.4097 106.795 58.2324 106.983 58.006C107.17 57.7768 107.264 57.5094 107.264 57.2039C107.264 56.9256 107.183 56.6992 107.021 56.5246C106.859 56.35 106.646 56.2081 106.382 56.099C106.118 55.9898 105.833 55.8943 105.526 55.8125L104.453 55.5179C103.772 55.3296 103.232 55.0609 102.835 54.7117C102.437 54.3625 102.238 53.9055 102.238 53.3408C102.238 52.8715 102.37 52.4623 102.635 52.1131C102.901 51.7612 103.259 51.4883 103.708 51.2946C104.159 51.0982 104.663 51 105.22 51C105.782 51 106.281 51.0969 106.719 51.2906C107.156 51.4815 107.502 51.7434 107.758 52.0763C108.016 52.4091 108.152 52.787 108.166 53.2098H107.144Z" fill="black"/>
<path d="M320.276 36.7031L320.216 31.8555H320.931L330.937 20.5H335.285L324.624 32.5195H324.326L320.276 36.7031ZM317 46V12H320.514V46H317ZM331.533 46L322.599 33.3828L325.1 30.6602L336 46H331.533Z" fill="black"/>
<path d="M302.778 46C300.342 46 298.243 45.4433 296.483 44.33C294.723 43.2166 293.369 41.683 292.422 39.7292C291.474 37.7754 291 35.5432 291 33.0327C291 30.4786 291.485 28.2246 292.455 26.2708C293.437 24.306 294.802 22.7725 296.551 21.67C298.311 20.5567 300.364 20 302.711 20C304.538 20 306.186 20.3275 307.652 20.9824C309.119 21.6373 310.321 22.5542 311.257 23.733C312.193 24.9118 312.774 26.2872 313 27.8589H309.006C308.702 26.7128 308.025 25.6977 306.975 24.8136C305.937 23.9186 304.538 23.471 302.778 23.471C301.222 23.471 299.856 23.864 298.683 24.6499C297.521 25.4249 296.613 26.5218 295.958 27.9408C295.315 29.3489 294.994 31.0025 294.994 32.9018C294.994 34.8447 295.31 36.5365 295.942 37.9773C296.585 39.4181 297.487 40.5369 298.649 41.3338C299.823 42.1306 301.199 42.529 302.778 42.529C303.816 42.529 304.758 42.3543 305.605 42.005C306.451 41.6558 307.167 41.1537 307.754 40.4987C308.341 39.8438 308.758 39.0579 309.006 38.1411H313C312.774 39.6255 312.216 40.9626 311.325 42.1524C310.445 43.3312 309.277 44.2699 307.822 44.9685C306.377 45.6562 304.696 46 302.778 46Z" fill="black"/>
<path d="M276.107 46C274.602 46 273.235 45.7006 272.007 45.1018C270.78 44.492 269.805 43.6156 269.083 42.4724C268.361 41.3183 268 39.9246 268 38.2915C268 36.8543 268.268 35.6893 268.805 34.7965C269.341 33.8928 270.058 33.1851 270.955 32.6734C271.853 32.1616 272.843 31.7806 273.926 31.5302C275.019 31.2688 276.118 31.062 277.221 30.9095C278.666 30.7136 279.836 30.5666 280.734 30.4686C281.641 30.3597 282.302 30.1801 282.714 29.9296C283.137 29.6792 283.349 29.2437 283.349 28.6231V28.4925C283.349 26.8811 282.931 25.629 282.095 24.7362C281.27 23.8434 280.017 23.397 278.336 23.397C276.592 23.397 275.226 23.7998 274.235 24.6055C273.245 25.4112 272.549 26.2714 272.147 27.1859L268.681 25.8794C269.3 24.3551 270.125 23.1683 271.156 22.3191C272.198 21.459 273.333 20.8601 274.56 20.5226C275.798 20.1742 277.015 20 278.212 20C278.975 20 279.852 20.098 280.842 20.294C281.843 20.4791 282.807 20.8656 283.735 21.4535C284.674 22.0415 285.453 22.9288 286.072 24.1156C286.691 25.3023 287 26.892 287 28.8844V45.4121H283.349V42.0151H283.163C282.915 42.5595 282.503 43.142 281.925 43.7626C281.347 44.3832 280.579 44.9112 279.62 45.3467C278.66 45.7822 277.49 46 276.107 46ZM276.664 42.5377C278.109 42.5377 279.326 42.2383 280.316 41.6394C281.317 41.0406 282.069 40.2676 282.575 39.3204C283.091 38.3731 283.349 37.3769 283.349 36.3317V32.804C283.194 33 282.853 33.1796 282.327 33.343C281.812 33.4954 281.213 33.6315 280.533 33.7513C279.862 33.8601 279.207 33.9581 278.568 34.0452C277.938 34.1214 277.428 34.1868 277.036 34.2412C276.087 34.3719 275.2 34.5842 274.375 34.8781C273.56 35.1612 272.9 35.5913 272.394 36.1683C271.899 36.7345 271.651 37.5075 271.651 38.4874C271.651 39.8266 272.121 40.8392 273.059 41.5251C274.008 42.2002 275.21 42.5377 276.664 42.5377Z" fill="black"/>
<path d="M253 46V20.4H256.266V24.2667H256.495C256.896 23 257.622 21.9722 258.672 21.1833C259.722 20.3944 260.906 20 262.224 20C262.472 20 262.783 20.0056 263.155 20.0167C263.527 20.0278 263.809 20.0444 264 20.0667V24.0667C263.885 24.0333 263.623 23.9833 263.212 23.9167C262.811 23.8389 262.386 23.8 261.937 23.8C260.868 23.8 259.913 24.0611 259.073 24.5833C258.242 25.0944 257.583 25.8056 257.096 26.7167C256.619 27.6167 256.38 28.6444 256.38 29.8V46H253Z" fill="black"/>
<path d="M227 15.6523V12H249V15.6523H239.776V46H236.224V15.6523H227Z" fill="black"/>
<path d="M222.559 21.733V26.7183H208V21.733H222.559ZM211.305 16H218.01V38.309C218.01 38.9218 218.105 39.3995 218.294 39.7423C218.483 40.0746 218.745 40.3083 219.081 40.4433C219.427 40.5783 219.826 40.6458 220.277 40.6458C220.592 40.6458 220.907 40.6199 221.221 40.568C221.536 40.5056 221.778 40.4589 221.945 40.4277L223 45.3663C222.664 45.4701 222.192 45.5896 221.583 45.7246C220.975 45.87 220.235 45.9583 219.364 45.9894C217.748 46.0517 216.332 45.8388 215.114 45.3507C213.908 44.8625 212.969 44.1044 212.297 43.0762C211.625 42.048 211.295 40.7497 211.305 39.1814V16Z" fill="black"/>
<path d="M203.417 27.5082L196.922 27.9016C196.811 27.3552 196.572 26.8634 196.206 26.4262C195.839 25.9781 195.356 25.623 194.757 25.3607C194.168 25.0874 193.463 24.9508 192.642 24.9508C191.542 24.9508 190.615 25.1803 189.86 25.6393C189.105 26.0874 188.728 26.6885 188.728 27.4426C188.728 28.0437 188.972 28.5519 189.461 28.9672C189.949 29.3825 190.787 29.7158 191.975 29.9672L196.605 30.8852C199.092 31.388 200.947 32.1967 202.168 33.3115C203.389 34.4262 204 35.8907 204 37.7049C204 39.3552 203.506 40.8033 202.518 42.0492C201.541 43.2951 200.197 44.2678 198.487 44.9672C196.789 45.6557 194.829 46 192.608 46C189.222 46 186.524 45.306 184.514 43.918C182.516 42.5191 181.344 40.6175 181 38.2131L187.978 37.8525C188.189 38.8689 188.7 39.6448 189.51 40.1803C190.321 40.7049 191.359 40.9672 192.625 40.9672C193.868 40.9672 194.868 40.7322 195.623 40.2623C196.389 39.7814 196.777 39.1639 196.789 38.4098C196.777 37.776 196.505 37.2568 195.972 36.8525C195.44 36.4372 194.618 36.1202 193.508 35.9016L189.077 35.0328C186.579 34.541 184.72 33.6885 183.498 32.4754C182.288 31.2623 181.683 29.7158 181.683 27.8361C181.683 26.2186 182.127 24.8251 183.015 23.6557C183.915 22.4863 185.175 21.5847 186.796 20.9508C188.428 20.3169 190.338 20 192.525 20C195.756 20 198.299 20.6721 200.153 22.0164C202.018 23.3607 203.106 25.1913 203.417 27.5082Z" fill="black"/>
<path d="M170.358 34.7378V20H177V45.6658H170.623V41.0039H170.373C169.833 42.5077 168.934 43.7164 167.676 44.6298C166.429 45.5433 164.906 46 163.108 46C161.507 46 160.099 45.6101 158.882 44.8303C157.666 44.0506 156.715 42.9422 156.029 41.5051C155.353 40.0681 155.01 38.347 155 36.3419V20H161.642V35.072C161.652 36.587 162.032 37.7845 162.78 38.6645C163.529 39.5446 164.532 39.9846 165.79 39.9846C166.59 39.9846 167.338 39.7896 168.035 39.3997C168.731 38.9987 169.292 38.4083 169.719 37.6285C170.155 36.8488 170.368 35.8852 170.358 34.7378Z" fill="black"/>
<path d="M136 46V20.3671H142.647V24.8395H142.905C143.355 23.2486 144.112 22.0471 145.174 21.2349C146.236 20.4116 147.459 20 148.843 20C149.187 20 149.557 20.0223 149.954 20.0668C150.351 20.1113 150.7 20.1724 151 20.2503V26.5584C150.678 26.4583 150.233 26.3693 149.664 26.2914C149.095 26.2135 148.575 26.1746 148.103 26.1746C147.094 26.1746 146.193 26.4027 145.399 26.8588C144.616 27.3038 143.994 27.9268 143.532 28.7279C143.082 29.5289 142.856 30.4523 142.856 31.4981V46H136Z" fill="black"/>
<path d="M102 17.9268V12H132V17.9268H120.817V46H113.183V17.9268H102Z" fill="black"/>
<defs>
<linearGradient id="paint0_linear_29_3" x1="43.5099" y1="22.5322" x2="90.1402" y2="0.294057" gradientUnits="userSpaceOnUse">
<stop stop-color="#00FFD9"/>
<stop offset="1" stop-color="#2A00FE"/>
</linearGradient>
<linearGradient id="paint1_linear_29_3" x1="46.4901" y1="23.133" x2="69.1357" y2="69.8572" gradientUnits="userSpaceOnUse">
<stop stop-color="#FF8400"/>
<stop offset="1" stop-color="#FF00D9"/>
</linearGradient>
<linearGradient id="paint2_linear_29_3" x1="43.5099" y1="23.133" x2="20.8643" y2="69.8572" gradientUnits="userSpaceOnUse">
<stop stop-color="#00FFD9"/>
<stop offset="1" stop-color="#2A00FE"/>
</linearGradient>
<linearGradient id="paint3_linear_29_3" x1="9.43136e-08" y1="4.57106e-08" x2="46.6303" y2="22.2381" gradientUnits="userSpaceOnUse">
<stop stop-color="#FF8400"/>
<stop offset="1" stop-color="#FF00D9"/>
</linearGradient>
</defs>
</svg>
