<svg width="234" height="114" viewBox="0 0 234 114" fill="none" xmlns="http://www.w3.org/2000/svg">
<path d="M135.119 30.5883C144.994 30.5883 153 22.85 153 13.3043L133.689 13.3043C123.813 13.3043 115.808 21.0426 115.808 30.5883L135.119 30.5883Z" fill="#2A00FE"/>
<path d="M118.192 31.0492C128.067 31.0492 136.073 38.7875 136.073 48.3332V58.358C136.073 63.1308 132.07 67 127.132 67C122.195 67 118.192 63.1308 118.192 58.358V31.0492Z" fill="#2A00FE"/>
<path d="M115.808 31.0492C105.933 31.0492 97.9272 38.7875 97.9272 48.3332V58.358C97.9272 63.1308 101.93 67 106.868 67C111.805 67 115.808 63.1308 115.808 58.358V31.0492Z" fill="#2A00FE"/>
<path d="M100.311 13.3043C110.187 13.3043 118.192 21.0426 118.192 30.5883H98.8808C89.0055 30.5883 81 22.85 81 13.3043L100.311 13.3043Z" fill="#2A00FE"/>
<path d="M123.923 7.02662C123.923 10.9073 120.669 14.0532 116.654 14.0532C112.639 14.0532 109.385 10.9073 109.385 7.02662C109.385 3.14593 112.639 0 116.654 0C120.669 0 123.923 3.14593 123.923 7.02662Z" fill="#2A00FE"/>
<path d="M218.276 104.703L218.216 99.8555H218.931L228.937 88.5H233.285L222.624 100.52H222.326L218.276 104.703ZM215 114V80H218.514V114H215ZM229.533 114L220.599 101.383L223.1 98.6602L234 114H229.533Z" fill="black"/>
<path d="M200.778 114C198.342 114 196.243 113.443 194.483 112.33C192.723 111.217 191.369 109.683 190.422 107.729C189.474 105.775 189 103.543 189 101.033C189 98.4786 189.485 96.2246 190.455 94.2708C191.437 92.306 192.802 90.7725 194.551 89.67C196.311 88.5567 198.364 88 200.711 88C202.538 88 204.186 88.3275 205.652 88.9824C207.119 89.6373 208.321 90.5542 209.257 91.733C210.193 92.9118 210.774 94.2872 211 95.8589H207.006C206.702 94.7128 206.025 93.6977 204.975 92.8136C203.937 91.9186 202.538 91.471 200.778 91.471C199.222 91.471 197.856 91.864 196.683 92.6499C195.521 93.4249 194.613 94.5218 193.958 95.9408C193.315 97.3489 192.994 99.0025 192.994 100.902C192.994 102.845 193.31 104.537 193.942 105.977C194.585 107.418 195.487 108.537 196.649 109.334C197.823 110.131 199.199 110.529 200.778 110.529C201.816 110.529 202.758 110.354 203.605 110.005C204.451 109.656 205.167 109.154 205.754 108.499C206.341 107.844 206.758 107.058 207.006 106.141H211C210.774 107.626 210.216 108.963 209.325 110.152C208.445 111.331 207.277 112.27 205.822 112.969C204.377 113.656 202.696 114 200.778 114Z" fill="black"/>
<path d="M174.107 114C172.602 114 171.235 113.701 170.007 113.102C168.78 112.492 167.805 111.616 167.083 110.472C166.361 109.318 166 107.925 166 106.291C166 104.854 166.268 103.689 166.805 102.796C167.341 101.893 168.058 101.185 168.955 100.673C169.853 100.162 170.843 99.7806 171.926 99.5302C173.019 99.2688 174.118 99.062 175.221 98.9095C176.666 98.7136 177.836 98.5666 178.734 98.4686C179.641 98.3597 180.302 98.1801 180.714 97.9296C181.137 97.6792 181.349 97.2437 181.349 96.6231V96.4925C181.349 94.8811 180.931 93.629 180.095 92.7362C179.27 91.8434 178.017 91.397 176.336 91.397C174.592 91.397 173.226 91.7998 172.235 92.6055C171.245 93.4112 170.549 94.2714 170.147 95.1859L166.681 93.8794C167.3 92.3551 168.125 91.1683 169.156 90.3191C170.198 89.459 171.333 88.8601 172.56 88.5226C173.798 88.1742 175.015 88 176.212 88C176.975 88 177.852 88.098 178.842 88.294C179.843 88.4791 180.807 88.8656 181.735 89.4535C182.674 90.0415 183.453 90.9288 184.072 92.1156C184.691 93.3023 185 94.892 185 96.8844V113.412H181.349V110.015H181.163C180.915 110.559 180.503 111.142 179.925 111.763C179.347 112.383 178.579 112.911 177.62 113.347C176.66 113.782 175.49 114 174.107 114ZM174.664 110.538C176.109 110.538 177.326 110.238 178.316 109.639C179.317 109.041 180.069 108.268 180.575 107.32C181.091 106.373 181.349 105.377 181.349 104.332V100.804C181.194 101 180.853 101.18 180.327 101.343C179.812 101.495 179.213 101.631 178.533 101.751C177.862 101.86 177.207 101.958 176.568 102.045C175.938 102.121 175.428 102.187 175.036 102.241C174.087 102.372 173.2 102.584 172.375 102.878C171.56 103.161 170.9 103.591 170.394 104.168C169.899 104.735 169.651 105.508 169.651 106.487C169.651 107.827 170.121 108.839 171.059 109.525C172.008 110.2 173.21 110.538 174.664 110.538Z" fill="black"/>
<path d="M151 114V88.4H154.266V92.2667H154.495C154.896 91 155.622 89.9722 156.672 89.1833C157.722 88.3944 158.906 88 160.224 88C160.472 88 160.783 88.0056 161.155 88.0167C161.527 88.0278 161.809 88.0444 162 88.0667V92.0667C161.885 92.0333 161.623 91.9833 161.212 91.9167C160.811 91.8389 160.386 91.8 159.937 91.8C158.868 91.8 157.913 92.0611 157.073 92.5833C156.242 93.0944 155.583 93.8056 155.096 94.7167C154.619 95.6167 154.38 96.6444 154.38 97.8V114H151Z" fill="black"/>
<path d="M125 83.6523V80H147V83.6523H137.776V114H134.224V83.6523H125Z" fill="black"/>
<path d="M120.559 89.733V94.7183H106V89.733H120.559ZM109.305 84H116.01V106.309C116.01 106.922 116.105 107.4 116.294 107.742C116.483 108.075 116.745 108.308 117.081 108.443C117.427 108.578 117.826 108.646 118.277 108.646C118.592 108.646 118.907 108.62 119.221 108.568C119.536 108.506 119.778 108.459 119.945 108.428L121 113.366C120.664 113.47 120.192 113.59 119.583 113.725C118.975 113.87 118.235 113.958 117.364 113.989C115.748 114.052 114.332 113.839 113.114 113.351C111.908 112.863 110.969 112.104 110.297 111.076C109.625 110.048 109.295 108.75 109.305 107.181V84Z" fill="black"/>
<path d="M101.417 95.5082L94.9218 95.9016C94.8108 95.3552 94.5721 94.8634 94.2057 94.4262C93.8392 93.9781 93.3563 93.623 92.7567 93.3607C92.1682 93.0874 91.4632 92.9508 90.6416 92.9508C89.5424 92.9508 88.6153 93.1803 87.8602 93.6393C87.1052 94.0874 86.7277 94.6885 86.7277 95.4426C86.7277 96.0437 86.972 96.5519 87.4605 96.9672C87.9491 97.3825 88.7873 97.7158 89.9754 97.9672L94.6054 98.8852C97.0924 99.388 98.9467 100.197 100.168 101.311C101.389 102.426 102 103.891 102 105.705C102 107.355 101.506 108.803 100.518 110.049C99.5407 111.295 98.1972 112.268 96.4873 112.967C94.7886 113.656 92.8289 114 90.6083 114C87.2218 114 84.5238 113.306 82.5141 111.918C80.5156 110.519 79.3442 108.617 79 106.213L85.9783 105.852C86.1892 106.869 86.7 107.645 87.5105 108.18C88.321 108.705 89.3592 108.967 90.6249 108.967C91.8684 108.967 92.8677 108.732 93.6227 108.262C94.3888 107.781 94.7775 107.164 94.7886 106.41C94.7775 105.776 94.5054 105.257 93.9725 104.852C93.4395 104.437 92.6179 104.12 91.5076 103.902L87.0775 103.033C84.5793 102.541 82.7195 101.689 81.4982 100.475C80.2879 99.2623 79.6828 97.7158 79.6828 95.8361C79.6828 94.2186 80.127 92.8251 81.0152 91.6557C81.9146 90.4863 83.1748 89.5847 84.7958 88.9508C86.4279 88.3169 88.3377 88 90.525 88C93.756 88 96.2986 88.6721 98.1528 90.0164C100.018 91.3607 101.106 93.1913 101.417 95.5082Z" fill="black"/>
<path d="M68.3579 102.738V88H75V113.666H68.623V109.004H68.3735C67.833 110.508 66.9339 111.716 65.6761 112.63C64.4288 113.543 62.906 114 61.1077 114C59.507 114 58.0985 113.61 56.8824 112.83C55.6662 112.051 54.7151 110.942 54.0291 109.505C53.3534 108.068 53.0104 106.347 53 104.342V88H59.6421V103.072C59.6525 104.587 60.0319 105.784 60.7803 106.665C61.5287 107.545 62.5318 107.985 63.7895 107.985C64.5899 107.985 65.3383 107.79 66.0347 107.4C66.7312 106.999 67.2925 106.408 67.7186 105.629C68.1552 104.849 68.3683 103.885 68.3579 102.738Z" fill="black"/>
<path d="M34 114V88.3671H40.647V92.8395H40.9045C41.3552 91.2486 42.1116 90.0471 43.1738 89.2349C44.2361 88.4116 45.4592 88 46.8433 88C47.1867 88 47.5569 88.0223 47.9539 88.0668C48.3509 88.1113 48.6996 88.1724 49 88.2503V94.5584C48.6781 94.4583 48.2328 94.3693 47.6642 94.2914C47.0955 94.2135 46.5751 94.1746 46.103 94.1746C45.0944 94.1746 44.1931 94.4027 43.3991 94.8588C42.6159 95.3038 41.9936 95.9268 41.5322 96.7279C41.0815 97.5289 40.8562 98.4523 40.8562 99.4981V114H34Z" fill="black"/>
<path d="M0 85.9268V80H30V85.9268H18.8169V114H11.1831V85.9268H0Z" fill="black"/>
</svg>
