<svg width="90" height="70" viewBox="0 0 90 70" fill="none" xmlns="http://www.w3.org/2000/svg">
<path d="M67.649 22.5322C79.9931 22.5322 90 12.4442 90 0L65.8609 1.06371e-06C53.5168 1.60766e-06 43.5099 10.088 43.5099 22.5322L67.649 22.5322Z" fill="url(#paint0_linear_29_4)"/>
<path d="M46.4901 23.133C58.8342 23.133 68.8411 33.2211 68.8411 45.6652V58.7339C68.8411 64.956 63.8376 70 57.6656 70C51.4935 70 46.4901 64.956 46.4901 58.7339V23.133Z" fill="url(#paint1_linear_29_4)"/>
<path d="M43.5099 23.133C31.1658 23.133 21.1589 33.2211 21.1589 45.6652V58.7339C21.1589 64.956 26.1624 70 32.3344 70C38.5065 70 43.5099 64.956 43.5099 58.7339V23.133Z" fill="url(#paint2_linear_29_4)"/>
<path d="M24.1391 1.30718e-06C36.4832 1.85113e-06 46.4901 10.088 46.4901 22.5322H22.351C10.0069 22.5322 -5.39578e-07 12.4442 0 2.43473e-07L24.1391 1.30718e-06Z" fill="url(#paint3_linear_29_4)"/>
<defs>
<linearGradient id="paint0_linear_29_4" x1="43.5099" y1="22.5322" x2="90.1402" y2="0.294057" gradientUnits="userSpaceOnUse">
<stop stop-color="#00FFD9"/>
<stop offset="1" stop-color="#2A00FE"/>
</linearGradient>
<linearGradient id="paint1_linear_29_4" x1="46.4901" y1="23.133" x2="69.1357" y2="69.8572" gradientUnits="userSpaceOnUse">
<stop stop-color="#FF8400"/>
<stop offset="1" stop-color="#FF00D9"/>
</linearGradient>
<linearGradient id="paint2_linear_29_4" x1="43.5099" y1="23.133" x2="20.8643" y2="69.8572" gradientUnits="userSpaceOnUse">
<stop stop-color="#00FFD9"/>
<stop offset="1" stop-color="#2A00FE"/>
</linearGradient>
<linearGradient id="paint3_linear_29_4" x1="9.43136e-08" y1="4.57106e-08" x2="46.6303" y2="22.2381" gradientUnits="userSpaceOnUse">
<stop stop-color="#FF8400"/>
<stop offset="1" stop-color="#FF00D9"/>
</linearGradient>
</defs>
</svg>
