<svg width="104" height="97" viewBox="0 0 104 97" fill="none" xmlns="http://www.w3.org/2000/svg">
<path d="M78.1722 44.2846C92.4365 44.2846 104 33.0813 104 19.2614L76.106 19.2614C61.8417 19.2614 50.2781 30.4647 50.2781 44.2846L78.1722 44.2846Z" fill="#2A00FE"/>
<path d="M53.7219 44.9518C67.9862 44.9518 79.5497 56.1551 79.5497 69.975V84.4884C79.5497 91.3984 73.7679 97 66.6358 97C59.5036 97 53.7219 91.3984 53.7219 84.4884V44.9518Z" fill="#2A00FE"/>
<path d="M50.2781 44.9518C36.0138 44.9518 24.4503 56.1551 24.4503 69.975V84.4884C24.4503 91.3984 30.2321 97 37.3642 97C44.4964 97 50.2781 91.3984 50.2781 84.4884V44.9518Z" fill="#2A00FE"/>
<path d="M27.894 19.2614C42.1583 19.2614 53.7219 30.4647 53.7219 44.2846H25.8278C11.5635 44.2846 -6.23513e-07 33.0813 0 19.2614L27.894 19.2614Z" fill="#2A00FE"/>
<path d="M62 10.1729C62 15.7912 57.299 20.3457 51.5 20.3457C45.701 20.3457 41 15.7912 41 10.1729C41 4.55455 45.701 0 51.5 0C57.299 0 62 4.55455 62 10.1729Z" fill="#2A00FE"/>
</svg>
